<?xml version="1.0" encoding="UTF-8"?>
<svg id="_레이어_1" data-name="레이어 1" xmlns="http://www.w3.org/2000/svg" viewBox="0 0 60.42 64.09">
  <defs>
    <style>
      .cls-1 {
        fill: #fff;
      }

      .cls-2 {
        fill: none;
        stroke: #fff;
        stroke-linecap: round;
        stroke-linejoin: round;
        stroke-width: 7px;
      }
    </style>
  </defs>
  <path class="cls-2" d="m50.65,47.4c3.91-4.65,6.27-10.64,6.27-17.19,0-14.75-11.96-26.71-26.71-26.71S3.5,15.46,3.5,30.21s11.96,26.71,26.71,26.71c4.34,0,8.43-1.04,12.06-2.88l10.56,6.54-2.17-13.19Z"/>
  <path class="cls-1" d="m19.29,27.97c-4.18,0-4.18,6.49,0,6.49s4.18-6.49,0-6.49Z"/>
  <path class="cls-1" d="m30.21,27.97c-4.18,0-4.18,6.49,0,6.49s4.18-6.49,0-6.49Z"/>
  <path class="cls-1" d="m41.13,27.97c-4.18,0-4.18,6.49,0,6.49s4.18-6.49,0-6.49Z"/>
</svg>