<svg xmlns="http://www.w3.org/2000/svg" viewBox="0 0 120 120" id="briefcase"><path d="m107.57,25.38h-20.3v-7.15c0-5.64-4.51-10.23-10.06-10.23h-34.41c-5.55,0-10.06,4.59-10.06,10.23v7.15H12.43c-5.48,0-9.93,4.53-9.93,10.1v41.04c0,3.84,2.11,7.18,5.22,8.89v18.84c0,4.27,3.61,7.75,8.05,7.75h88.46c4.44,0,8.05-3.48,8.05-7.75v-18.84c3.11-1.71,5.22-5.05,5.22-8.89v-41.04c0-5.57-4.46-10.1-9.93-10.1Zm-70.97-7.15c0-3.43,2.78-6.23,6.19-6.23h34.41c3.41,0,6.19,2.79,6.19,6.23v7.15h-46.8v-7.15Zm71.81,86.02c0,2.07-1.88,3.75-4.18,3.75H15.77c-2.31,0-4.18-1.68-4.18-3.75v-17.68c.28.02.56.04.85.04h38.28v3.34c0,4.01,3.2,7.28,7.14,7.28h4.29c3.94,0,7.14-3.26,7.14-7.28v-3.34h38.28c.29,0,.57-.02.85-.04v17.68Zm-42.99-19.63v5.34c0,1.81-1.47,3.28-3.28,3.28h-4.29c-1.81,0-3.28-1.47-3.28-3.28v-13.45c0-1.81,1.47-3.28,3.28-3.28h4.29c1.81,0,3.28,1.47,3.28,3.28v8.1Zm48.21-8.1c0,3.37-2.72,6.1-6.07,6.1h-38.28v-6.1c0-4.01-3.2-7.28-7.14-7.28h-4.29c-3.94,0-7.14,3.26-7.14,7.28v6.1H12.43c-3.35,0-6.07-2.74-6.07-6.1v-41.04c0-3.37,2.72-6.1,6.07-6.1h95.13c3.35,0,6.07,2.74,6.07,6.1v41.04Z"></path></svg>