<svg xmlns="http://www.w3.org/2000/svg" width="32" height="32" id="bulb"><path d="M16 1.027c-5.229 0-9.5 4.073-9.5 9.11 0 3.935 1.355 5.808 2.623 7.263 1.193 1.37 2.234 2.348 2.354 4.727a1.506 1.506 0 0 0-.977 1.4c0 .647.421 1.198 1 1.407v.593a4.501 4.501 0 0 0 9 0v-.593c.579-.209 1-.76 1-1.407 0-.638-.41-1.185-.977-1.4.12-2.38 1.16-3.357 2.354-4.727 1.268-1.455 2.623-3.328 2.623-7.263 0-5.037-4.271-9.11-9.5-9.11zm0 1c4.712 0 8.5 3.638 8.5 8.11 0 3.717-1.145 5.193-2.377 6.607-1.711 1.637-2.314 2.902-2.623 5.283h-7c-.073-2.136-1.09-3.973-2.623-5.283C8.645 15.33 7.5 13.854 7.5 10.137c0-4.472 3.788-8.11 8.5-8.11zm-4 21h8c.286 0 .5.215.5.5 0 .286-.214.5-.5.5h-8a.488.488 0 0 1-.5-.5c0-.285.214-.5.5-.5zm.5 2h7v.5c0 1.948-1.552 3.5-3.5 3.5a3.481 3.481 0 0 1-3.5-3.5v-.5z" color="#000" font-family="sans-serif" font-weight="400" overflow="visible" style="line-height:normal;text-indent:0;text-align:start;text-decoration-line:none;text-decoration-style:solid;text-decoration-color:#000;text-transform:none;block-progression:tb;white-space:normal;isolation:auto;mix-blend-mode:normal;solid-color:#000;solid-opacity:1"></path></svg>