<svg width="61" height="65" viewBox="0 0 61 65" fill="none" xmlns="http://www.w3.org/2000/svg">
<path d="M51.15 47.9C55.06 43.25 57.42 37.26 57.42 30.71C57.42 15.96 45.46 4 30.71 4C15.96 4 4 15.96 4 30.71C4 45.46 15.96 57.42 30.71 57.42C35.05 57.42 39.14 56.38 42.77 54.54L53.33 61.08L51.16 47.89L51.15 47.9Z" stroke="white" stroke-width="7" stroke-linecap="round" stroke-linejoin="round"/>
<path d="M19.79 28.47C15.61 28.47 15.61 34.96 19.79 34.96C23.97 34.96 23.97 28.47 19.79 28.47Z" fill="white"/>
<path d="M30.71 28.47C26.53 28.47 26.53 34.96 30.71 34.96C34.89 34.96 34.89 28.47 30.71 28.47Z" fill="white"/>
<path d="M41.6301 28.47C37.4501 28.47 37.4501 34.96 41.6301 34.96C45.8101 34.96 45.8101 28.47 41.6301 28.47Z" fill="white"/>
</svg>
